# xmcd
#
# Track frame offsets:
#	150
#	21692
#	41842
#	64350
#	86315
#	106095
#	129780
#	153192
#	171872
#	193002
#
# Disc length: 2825 seconds
#
# Revision: 1
# Processed by: cddbd v1.5PL3 Copyright (c) Steve Scherf et al.
# Submitted via: EasyCDDAExtractor 5.0.7
#
DISCID=7e0b070a
DTITLE=Various Artist - Ngo Thuy Mien
DYEAR=2002
DGENRE=Pop
TTITLE0=Tuan Ngoc - Rieng Mot Goc Troi
TTITLE1=Thai Hien - Thu Trong Mat Em
TTITLE2=Don Ho - May Bon Phuong Troi
TTITLE3=Thanh Lan - Dau Vet Tinh Yeu
TTITLE4=Y Lan - Goi Ten Anh
TTITLE5=Thanh Ha and Don Ho - Mua Thu Xa Em
TTITLE6=Hien - Tuoi May Hong
TTITLE7=The Son - Dau Tinh Sau
TTITLE8=Thanh Ha - Can Thiet
TTITLE9=Hoa Mi - Trong Noi Nho Muon Mang
EXTD=
EXTT0=
EXTT1=
EXTT2=
EXTT3=
EXTT4=
EXTT5=
EXTT6=
EXTT7=
EXTT8=
EXTT9=
PLAYORDER=
